<?xml version="1.0" standalone="no"?><!-- Generator: Gravit.io --><svg xmlns="http://www.w3.org/2000/svg" xmlns:xlink="http://www.w3.org/1999/xlink" style="isolation:isolate" viewBox="-4055 -3610 2789 2789" width="2789" height="2789"><defs><clipPath id="_clipPath_fl2H9EpU1U2O04JIHx37zbaxB61GAbYQ"><rect x="-4055" y="-3610" width="2789" height="2789"/></clipPath></defs><g clip-path="url(#_clipPath_fl2H9EpU1U2O04JIHx37zbaxB61GAbYQ)"><clipPath id="_clipPath_0NyOqOTzKVg3OKKQXTQkArFOupK1MiIJ"><rect x="-4055" y="-3610" width="2789" height="2789" transform="matrix(1,0,0,1,0,0)" fill="rgb(255,255,255)"/></clipPath><g clip-path="url(#_clipPath_0NyOqOTzKVg3OKKQXTQkArFOupK1MiIJ)"><g><rect x="-4055" y="-3610" width="2789" height="2789" transform="matrix(1,0,0,1,0,0)" fill="none"/><circle vector-effect="non-scaling-stroke" cx="-2660.5" cy="-2215.5" r="1324.7749999999996" fill="rgb(255,0,0)"/><g><path d=" M -3486.407 -2330.951 C -3527.154 -2376.3 -3562.881 -2425.93 -3592.932 -2478.977 C -3653.161 -2584.666 -3691.719 -2701.302 -3706.375 -2822.066 L -3706.375 -2860.791 C -3704.799 -2885.39 -3695.066 -2908.762 -3678.708 -2927.197 C -3670.146 -2935.55 -3659.715 -2941.714 -3648.266 -2945.186 C -3640.638 -2947.529 -3632.731 -2948.923 -3624.755 -2949.342 L -3609.541 -2949.342 C -3588.777 -2949.342 -3565.266 -2952.103 -3545.896 -2947.947 C -3525.146 -2943.806 -3240.166 -2939.65 -3061.698 -2768.112 C -2941.338 -2837.28 -2475.129 -2815.149 -2376.901 -2726.598 C -2376.901 -2754.279 -2108.515 -2925.816 -1777.879 -2903.686 C -1752.332 -2902.961 -1727.468 -2895.305 -1705.937 -2881.555 C -1696.524 -2874.889 -1688.533 -2866.425 -1682.412 -2856.649 L -1671.353 -2830.363 C -1665.204 -2794.957 -1666.612 -2758.658 -1675.495 -2723.837 C -1683.82 -2687.008 -1696.343 -2651.267 -1712.854 -2617.311 C -1738.624 -2559.091 -1769.163 -2503.116 -1804.165 -2449.915 L -1871.952 -2326.795 L -1858.119 -2324.02 L -1858.119 -2229.947 L -1909.297 -2216.114 C -1889.83 -2156.861 -1883.234 -2094.137 -1889.927 -2032.123 C -1899.968 -1953.473 -1936.001 -1880.43 -1992.311 -1824.608 L -2019.978 -1796.941 C -2072.927 -1751.131 -2129.349 -1709.506 -2188.755 -1672.426 C -2236.488 -1644.215 -2287.025 -1621.039 -2339.542 -1603.259 L -2345.078 -1600.498 L -2349.234 -1599.103 L -2351.995 -1593.581 C -2366.512 -1564.868 -2386.76 -1539.446 -2411.484 -1518.864 C -2426.893 -1505.309 -2443.572 -1493.261 -2461.282 -1482.899 C -2520.743 -1450.212 -2587.149 -1432.181 -2654.964 -1430.327 C -2689.492 -1427.482 -2724.201 -1427.482 -2758.729 -1430.327 C -2816.586 -1435.291 -2873.677 -1446.893 -2928.885 -1464.91 C -2950.43 -1473.347 -2971.25 -1483.527 -2991.136 -1495.352 C -3015.052 -1511.11 -3035.704 -1531.303 -3052.006 -1554.842 C -3053.972 -1557.519 -3055.827 -1560.294 -3057.542 -1563.139 L -3064.459 -1564.52 C -3174.527 -1581.546 -3276.046 -1634.007 -3353.594 -1713.94 C -3406.265 -1770.264 -3444.265 -1838.678 -3464.276 -1913.145 C -3478.067 -1961.06 -3487.327 -2010.146 -3491.943 -2059.79 C -3498.525 -2110.703 -3499.919 -2162.16 -3496.098 -2213.352 L -3496.098 -2224.425 L -3514.073 -2229.947 L -3515.468 -2324.02 L -3487.787 -2330.951 L -3486.407 -2330.951 Z " fill-rule="evenodd" fill="rgb(0,0,0)" fill-opacity="0.2"/><path d=" M -3433.834 -2382.129 C -3474.832 -2427.785 -3510.559 -2477.903 -3540.36 -2531.536 C -3600.588 -2637.239 -3639.146 -2753.875 -3653.802 -2874.638 C -3654.374 -2884.302 -3654.374 -2894.008 -3653.802 -2903.686 L -3653.802 -2913.364 C -3652.394 -2934.936 -3644.696 -2955.617 -3631.672 -2972.853 C -3622.496 -2984.623 -3609.945 -2993.31 -3595.707 -2997.759 C -3588.512 -2999.99 -3581.079 -3001.384 -3573.563 -3001.9 L -3556.968 -3001.9 C -3537.599 -3001.9 -3512.693 -3004.675 -3493.323 -3000.52 C -3472.573 -2996.378 -3188.974 -2992.223 -3009.125 -2820.671 C -2888.766 -2889.852 -2423.937 -2867.708 -2324.328 -2779.171 C -2324.328 -2806.838 -2057.323 -2977.009 -1725.306 -2956.258 C -1699.634 -2955.115 -1674.756 -2946.985 -1653.364 -2932.733 C -1644.788 -2926.123 -1637.314 -2918.175 -1631.233 -2909.222 C -1620.161 -2888.346 -1614.458 -2865.058 -1614.625 -2841.435 C -1614.625 -2817.91 -1618.781 -2797.16 -1622.936 -2776.41 C -1632.168 -2739.232 -1645.151 -2703.073 -1661.661 -2668.503 C -1687.265 -2610.897 -1717.33 -2555.395 -1751.593 -2502.488 L -1820.76 -2377.987 L -1805.546 -2375.212 L -1806.927 -2282.52 L -1856.724 -2268.686 C -1837.968 -2209.281 -1831.846 -2146.612 -1838.749 -2084.696 C -1847.981 -2006.088 -1883.582 -1932.946 -1939.739 -1877.18 C -1958.509 -1858.494 -1978.366 -1840.937 -1999.228 -1824.608 C -2042.569 -1787.305 -2088.825 -1753.53 -2137.562 -1723.618 C -2184.864 -1695.491 -2234.926 -1672.314 -2286.969 -1654.451 L -2293.886 -1651.676 L -2298.042 -1651.676 L -2299.422 -1646.14 C -2313.772 -1616.939 -2334.034 -1591.029 -2358.911 -1570.056 C -2374.809 -1556.878 -2391.947 -1545.303 -2410.104 -1535.472 C -2468.742 -1503.245 -2534.144 -1485.242 -2601.011 -1482.899 C -2635.999 -1480.013 -2671.168 -1480.013 -2706.156 -1482.899 C -2764.028 -1487.808 -2821.119 -1499.424 -2876.313 -1517.483 C -2897.942 -1525.738 -2918.775 -1535.918 -2938.577 -1547.925 C -2952.411 -1556.222 -2966.244 -1567.295 -2977.303 -1578.353 C -2988.361 -1589.342 -2997.69 -1601.934 -3004.969 -1615.712 L -3011.9 -1615.712 C -3122.777 -1633.296 -3224.826 -1686.761 -3302.416 -1767.893 C -3354.375 -1823.966 -3391.887 -1891.878 -3411.703 -1965.717 C -3425.495 -2013.632 -3434.754 -2062.719 -3439.37 -2112.363 C -3446.566 -2166.944 -3447.96 -2222.124 -3443.526 -2276.984 L -3461.515 -2282.52 L -3464.276 -2375.212 L -3433.834 -2382.129 Z " fill-rule="evenodd" fill="rgb(255,255,255)" vector-effect="non-scaling-stroke" stroke-width="0.293" stroke="rgb(207,207,207)" stroke-opacity="100" stroke-linejoin="round" stroke-linecap="butt" stroke-miterlimit="1.41"/><path d=" M -3042.328 -2732.134 C -3042.328 -2732.134 -2722.75 -2870.483 -2311.875 -2689.253 C -2311.875 -2689.253 -2136.182 -2831.743 -1849.807 -2874.638 C -1563.447 -2917.519 -1845.666 -2488.655 -1845.666 -2488.655 L -1956.333 -2290.831 C -1956.333 -2290.831 -1848.427 -2072.243 -2029.656 -1906.228 C -2118.026 -1818.346 -2225.5 -1752.066 -2343.697 -1712.546 C -2343.697 -1712.546 -2397.651 -1552.067 -2674.333 -1561.758 C -2937.183 -1571.436 -2966.244 -1684.879 -2966.244 -1684.879 C -2966.244 -1684.879 -3267.833 -1704.248 -3342.536 -2021.051 C -3395.109 -2249.317 -3342.536 -2364.14 -3342.536 -2364.14 C -3342.536 -2364.14 -3498.859 -2516.322 -3548.657 -2765.337 C -3592.932 -2989.461 -3454.584 -2913.364 -3350.833 -2896.769 C -3253.999 -2882.936 -3060.317 -2772.254 -3040.947 -2733.515 L -3042.328 -2732.134 Z " fill-rule="evenodd" fill="rgb(230,182,120)"/><path d=" M -3374.358 -2371.056 C -3411.396 -2412.654 -3443.86 -2458.115 -3471.193 -2506.644 C -3526.261 -2603.896 -3561.528 -2711.105 -3574.943 -2822.066 L -3574.943 -2858.03 C -3573.688 -2877.483 -3566.981 -2896.169 -3555.588 -2911.983 C -3547.123 -2922.972 -3535.549 -2931.171 -3522.385 -2935.508 C -3512.498 -2938.409 -3502.234 -2939.803 -3491.943 -2939.65 L -3486.407 -2939.65 C -3468.431 -2939.65 -3450.442 -2936.889 -3432.453 -2932.733 L -3381.275 -2920.28 L -3367.428 -2917.519 L -3353.594 -2914.758 L -3342.536 -2913.364 L -3337 -2913.364 C -3307.311 -2907.284 -3278.501 -2897.522 -3251.224 -2884.316 C -3181.834 -2854.85 -3115.944 -2817.729 -3054.781 -2773.635 L -3035.411 -2754.279 L -3025.733 -2758.421 C -2792.462 -2826.389 -2542.734 -2810.24 -2320.172 -2712.765 L -2314.65 -2711.384 L -2307.733 -2715.54 L -2298.042 -2722.457 C -2162.329 -2811.44 -2008.934 -2869.967 -1848.427 -2893.994 L -1831.832 -2895.388 C -1822.615 -2896.016 -1813.369 -2896.016 -1804.165 -2895.388 C -1781.114 -2895.068 -1758.607 -2888.36 -1739.14 -2876.019 C -1730.954 -2869.925 -1723.926 -2862.436 -1718.39 -2853.874 C -1713.662 -2846.567 -1709.939 -2838.66 -1707.317 -2830.363 C -1703.985 -2817.269 -1702.59 -2803.742 -1703.162 -2790.243 C -1708.586 -2735.648 -1723.075 -2682.351 -1746.057 -2632.525 C -1769.721 -2579.716 -1797.472 -2528.844 -1829.057 -2480.357 L -1891.322 -2366.915 L -1877.474 -2364.14 L -1880.249 -2278.378 L -1924.511 -2264.545 C -1907.219 -2210.536 -1901.557 -2153.487 -1907.916 -2097.149 C -1918.417 -2012.67 -1961.632 -1935.68 -2028.276 -1882.717 L -2055.942 -1857.811 C -2095.574 -1824.287 -2137.66 -1793.761 -2181.838 -1766.499 C -2225.583 -1740.478 -2271.95 -1719.142 -2320.172 -1702.868 L -2325.708 -1700.093 L -2329.864 -1700.093 C -2343.154 -1671.798 -2362.523 -1646.753 -2386.578 -1626.784 C -2400.523 -1613.648 -2415.835 -1602.059 -2432.234 -1592.186 C -2486.634 -1562.344 -2547.294 -1545.75 -2609.322 -1543.769 C -2710.242 -1538.889 -2810.98 -1556.85 -2903.98 -1596.342 C -2922.345 -1606.257 -2939.135 -1618.835 -2953.791 -1633.701 C -2961.573 -1641.231 -2968.531 -1649.584 -2974.541 -1658.592 L -2980.078 -1666.904 L -2985.614 -1666.904 C -3086.659 -1683.415 -3179.77 -1731.901 -3251.224 -1805.238 C -3299.32 -1856.932 -3334.002 -1919.643 -3352.214 -1987.848 C -3365.615 -2031.621 -3374.874 -2076.552 -3379.881 -2122.041 C -3385.598 -2168.868 -3386.519 -2216.141 -3382.656 -2263.15 L -3382.656 -2272.842 L -3399.25 -2278.378 L -3400.631 -2364.14 L -3372.964 -2371.056 L -3374.358 -2371.056 Z  M -3345.297 -2263.15 C -3352.409 -2192.254 -3347.263 -2120.646 -3330.083 -2051.493 L -3316.25 -1997.54 C -3298.456 -1937.534 -3268.293 -1881.936 -3227.713 -1834.286 C -3181.457 -1782.731 -3122.219 -1744.508 -3056.161 -1723.618 C -3027.435 -1713.703 -2997.76 -1706.759 -2967.625 -1702.868 L -2952.411 -1702.868 C -2952.411 -1697.332 -2949.636 -1693.176 -2948.255 -1689.034 C -2946.247 -1683.15 -2943.458 -1677.572 -2939.958 -1672.426 C -2932.093 -1661.939 -2922.778 -1652.624 -2912.291 -1644.759 C -2898.457 -1633.701 -2880.468 -1625.389 -2863.86 -1617.092 C -2772.534 -1584.949 -2675.059 -1574.058 -2578.88 -1585.27 C -2529.082 -1590.806 -2482.046 -1606.02 -2440.532 -1632.306 C -2411.205 -1650.853 -2386.578 -1675.954 -2368.603 -1705.629 C -2365.954 -1710.063 -2363.639 -1714.693 -2361.687 -1719.462 L -2358.911 -1727.774 L -2328.483 -1740.213 C -2285.059 -1757.337 -2242.582 -1776.735 -2201.207 -1798.321 C -2147.254 -1828.61 -2097.485 -1865.815 -2053.181 -1909.003 L -2031.037 -1931.134 C -2005.406 -1956.374 -1984.349 -1985.854 -1968.786 -2018.29 C -1944.243 -2071.922 -1936.531 -2131.732 -1946.655 -2189.827 L -1946.655 -2193.983 C -1986.775 -1996.159 -2080.848 -2005.837 -2080.848 -2005.837 C -2080.848 -2005.837 -2267.614 -1985.087 -2393.495 -1998.92 C -2519.391 -2012.754 -2591.333 -2211.972 -2591.333 -2211.972 L -2688.167 -2211.972 C -2688.167 -2211.972 -2758.729 -2014.134 -2884.624 -1998.92 C -3010.506 -1985.087 -3197.271 -2005.837 -3197.271 -2005.837 C -3197.271 -2005.837 -3313.475 -1993.384 -3342.536 -2261.77 L -3345.297 -2261.77 L -3345.297 -2263.15 Z  M -2578.88 -1618.473 C -2578.88 -1612.937 -2589.952 -1601.878 -2598.25 -1600.498 C -2620.38 -1597.723 -2692.322 -1597.723 -2714.453 -1600.498 C -2722.75 -1600.498 -2733.823 -1612.937 -2733.823 -1618.473 C -2733.823 -1625.389 -2722.75 -1636.462 -2714.453 -1637.842 C -2692.322 -1640.617 -2620.38 -1640.617 -2598.25 -1637.842 C -2589.952 -1636.462 -2578.88 -1624.009 -2578.88 -1618.473 Z  M -2661.881 -1915.92 C -2588.558 -1915.92 -2529.082 -1855.05 -2529.082 -1781.727 C -2529.082 -1707.023 -2588.558 -1646.14 -2661.881 -1646.14 C -2697.719 -1646.14 -2732.066 -1660.475 -2757.264 -1685.939 C -2782.477 -1711.402 -2796.45 -1745.888 -2796.073 -1781.727 C -2796.073 -1855.05 -2736.584 -1915.92 -2661.881 -1915.92 Z  M -3224.938 -2358.618 C -3224.938 -2358.618 -3000.828 -2405.654 -2834.812 -2344.784 C -2708.917 -2296.353 -2769.787 -2202.28 -2798.848 -2151.102 C -2827.896 -2099.91 -2897.063 -2052.873 -2933.041 -2048.718 C -2969.005 -2044.576 -3154.39 -2054.254 -3154.39 -2054.254 C -3154.39 -2054.254 -3260.916 -2081.921 -3281.666 -2234.103 C -3294.119 -2325.414 -3224.938 -2358.618 -3224.938 -2358.618 Z  M -2054.562 -2358.618 C -2054.562 -2358.618 -2277.291 -2405.654 -2444.687 -2344.784 C -2569.202 -2296.353 -2509.713 -2202.28 -2479.271 -2151.102 C -2451.604 -2099.91 -2381.042 -2052.873 -2345.078 -2048.718 C -2310.494 -2044.576 -2125.11 -2054.254 -2125.11 -2054.254 C -2125.11 -2054.254 -2017.203 -2081.921 -1997.834 -2234.103 C -1984 -2325.414 -2053.181 -2358.618 -2053.181 -2358.618 L -2054.562 -2358.618 Z  M -2320.172 -2303.27 C -2278.672 -2286.675 -2259.302 -2242.4 -2274.53 -2203.675 C -2288.364 -2166.316 -2335.4 -2148.327 -2375.52 -2164.935 C -2394.931 -2171.504 -2410.871 -2185.644 -2419.726 -2204.135 C -2428.581 -2222.626 -2429.599 -2243.906 -2422.556 -2263.15 C -2405.948 -2301.889 -2361.687 -2318.498 -2320.172 -2303.27 Z  M -2902.599 -2303.27 C -2861.099 -2286.675 -2841.729 -2242.4 -2856.943 -2203.675 C -2870.777 -2166.316 -2917.813 -2148.327 -2957.933 -2164.935 C -2977.358 -2171.504 -2993.297 -2185.644 -3002.152 -2204.135 C -3011.008 -2222.626 -3012.026 -2243.906 -3004.969 -2263.15 C -2989.755 -2301.889 -2944.099 -2318.498 -2902.599 -2303.27 Z  M -1928.666 -2376.593 L -1860.88 -2498.332 L -1853.963 -2509.405 L -1847.046 -2521.858 C -1815.712 -2574.333 -1787.975 -2628.872 -1764.046 -2685.098 C -1754.465 -2713.546 -1747.061 -2742.691 -1741.901 -2772.254 L -1740.52 -2783.326 L -1740.52 -2799.921 C -1740.967 -2813.322 -1745.29 -2826.291 -1752.973 -2837.28 C -1759.012 -2845.005 -1767.183 -2850.778 -1776.485 -2853.874 C -1784.489 -2856.858 -1792.87 -2858.727 -1801.39 -2859.41 C -1816.604 -2859.41 -1831.832 -2859.41 -1847.046 -2856.649 C -2001.515 -2832.636 -2149.123 -2776.047 -2280.053 -2690.634 L -2300.817 -2675.42 L -2309.114 -2667.123 L -2329.864 -2676.801 L -2343.697 -2682.337 C -2400.258 -2705.318 -2458.549 -2723.823 -2518.01 -2737.671 C -2677.848 -2773.997 -2844.197 -2770.19 -3002.208 -2726.598 L -3032.65 -2715.54 L -3050.625 -2708.623 L -3058.937 -2723.837 C -3146.204 -2791.038 -3244.517 -2842.537 -3349.453 -2876.019 L -3360.511 -2878.78 L -3371.583 -2880.161 L -3426.917 -2893.994 C -3431.073 -2893.994 -3435.228 -2893.994 -3440.751 -2896.769 C -3459.855 -2900.813 -3479.35 -2902.668 -3498.859 -2902.305 C -3506.278 -2901.887 -3513.432 -2899.502 -3519.61 -2895.388 L -3522.385 -2892.613 C -3529.315 -2885.836 -3534.126 -2877.19 -3536.218 -2867.708 L -3536.218 -2855.269 C -3537.543 -2843.792 -3538.017 -2832.232 -3537.599 -2820.671 L -3536.218 -2802.696 C -3534.14 -2784.972 -3530.905 -2767.415 -3526.526 -2750.123 C -3495.471 -2612.152 -3428.674 -2484.764 -3332.844 -2380.748 L -3277.51 -2393.201 C -3277.51 -2393.201 -3197.271 -2415.332 -3087.984 -2422.249 C -2946.624 -2438.118 -2804.022 -2406.477 -2682.631 -2332.331 C -2666.036 -2326.795 -2652.203 -2324.02 -2639.75 -2324.02 C -2624.633 -2324.355 -2609.684 -2327.158 -2595.474 -2332.331 C -2581.641 -2339.248 -2573.344 -2347.545 -2573.344 -2347.545 C -2347.853 -2488.655 -2001.989 -2393.201 -2001.989 -2393.201 L -1928.666 -2376.593 Z " fill-rule="evenodd" fill="rgb(67,50,49)"/><path d=" M -2043.49 -2460.988 L -2151.396 -2549.525 C -2155.552 -2599.322 -2133.421 -2649.134 -2073.931 -2697.551 C -2073.931 -2697.551 -1899.619 -2775.029 -1826.296 -2766.718 C -1752.973 -2758.421 -1992.311 -2568.894 -2043.49 -2462.368 L -2043.49 -2460.988 Z  M -3252.605 -2470.666 L -3135.02 -2545.369 C -3125.329 -2593.8 -3140.557 -2646.373 -3194.51 -2701.706 C -3194.51 -2701.706 -3357.75 -2798.54 -3432.453 -2798.54 C -3507.157 -2798.54 -3291.344 -2585.489 -3252.605 -2470.666 Z " fill-rule="evenodd" fill="rgb(243,221,192)"/><path d=" M -2361.687 -2274.222 C -2353.375 -2270.067 -2350.614 -2260.389 -2353.375 -2252.092 C -2357.531 -2243.794 -2367.209 -2238.258 -2374.125 -2241.019 C -2382.437 -2245.175 -2385.198 -2254.853 -2382.437 -2263.15 C -2378.281 -2272.842 -2368.603 -2276.984 -2361.687 -2274.222 Z  M -2944.099 -2274.222 C -2935.802 -2270.067 -2933.041 -2260.389 -2935.802 -2252.092 C -2939.958 -2243.794 -2949.636 -2238.258 -2956.552 -2241.019 C -2964.85 -2245.175 -2969.005 -2254.853 -2964.85 -2263.15 C -2962.089 -2272.842 -2951.016 -2276.984 -2944.099 -2274.222 Z " fill-rule="evenodd" fill="rgb(255,255,255)"/></g></g></g></g></svg>